<mxfile host="app.diagrams.net" modified="2023-02-23T11:43:28.804Z" agent="5.0 (Windows NT 10.0; Win64; x64) AppleWebKit/537.36 (KHTML, like Gecko) Chrome/110.0.0.0 Safari/537.36" etag="wEkHhDRDUJQGng06Yv64" version="20.8.23" type="github">
  <diagram name="Page-1" id="yXInIZI1BgA-7ZECgJcC">
    <mxGraphModel dx="1050" dy="483" grid="1" gridSize="10" guides="1" tooltips="1" connect="1" arrows="1" fold="1" page="1" pageScale="1" pageWidth="850" pageHeight="1100" math="0" shadow="0">
      <root>
        <mxCell id="0" />
        <mxCell id="1" parent="0" />
        <mxCell id="I768x9JOPk0k12pN69zW-22" style="edgeStyle=orthogonalEdgeStyle;rounded=0;orthogonalLoop=1;jettySize=auto;html=1;exitX=1;exitY=0;exitDx=0;exitDy=52.5;exitPerimeter=0;entryX=0;entryY=0.5;entryDx=0;entryDy=0;" parent="1" source="I768x9JOPk0k12pN69zW-1" target="I768x9JOPk0k12pN69zW-19" edge="1">
          <mxGeometry relative="1" as="geometry" />
        </mxCell>
        <mxCell id="I768x9JOPk0k12pN69zW-1" value="" style="shape=cylinder3;whiteSpace=wrap;html=1;boundedLbl=1;backgroundOutline=1;size=15;" parent="1" vertex="1">
          <mxGeometry x="280" y="480" width="60" height="80" as="geometry" />
        </mxCell>
        <mxCell id="I768x9JOPk0k12pN69zW-3" value="" style="rounded=1;whiteSpace=wrap;html=1;" parent="1" vertex="1">
          <mxGeometry x="190" y="240" width="220" height="170" as="geometry" />
        </mxCell>
        <mxCell id="I768x9JOPk0k12pN69zW-5" style="edgeStyle=orthogonalEdgeStyle;rounded=0;orthogonalLoop=1;jettySize=auto;html=1;exitX=1;exitY=0.5;exitDx=0;exitDy=0;exitPerimeter=0;" parent="1" source="I768x9JOPk0k12pN69zW-2" edge="1">
          <mxGeometry relative="1" as="geometry">
            <mxPoint x="340" y="520" as="targetPoint" />
            <Array as="points">
              <mxPoint x="470" y="265" />
              <mxPoint x="470" y="485" />
              <mxPoint x="350" y="485" />
              <mxPoint x="350" y="520" />
            </Array>
          </mxGeometry>
        </mxCell>
        <mxCell id="I768x9JOPk0k12pN69zW-2" value="HAADSelfPayClaimSQLInsertSend" style="verticalLabelPosition=bottom;verticalAlign=top;html=1;strokeWidth=2;shape=mxgraph.arrows2.arrow;dy=0.6;dx=40;notch=0.6;rotation=0;" parent="1" vertex="1">
          <mxGeometry x="350" y="250" width="110" height="30" as="geometry" />
        </mxCell>
        <mxCell id="I768x9JOPk0k12pN69zW-12" style="edgeStyle=orthogonalEdgeStyle;rounded=0;orthogonalLoop=1;jettySize=auto;html=1;exitX=1;exitY=0.5;exitDx=0;exitDy=0;exitPerimeter=0;" parent="1" source="I768x9JOPk0k12pN69zW-11" target="I768x9JOPk0k12pN69zW-2" edge="1">
          <mxGeometry relative="1" as="geometry" />
        </mxCell>
        <mxCell id="I768x9JOPk0k12pN69zW-11" value="HAADSelfPayClaimReceive" style="verticalLabelPosition=bottom;verticalAlign=top;html=1;strokeWidth=2;shape=mxgraph.arrows2.arrow;dy=0.6;dx=40;notch=0;" parent="1" vertex="1">
          <mxGeometry x="170" y="250" width="100" height="30" as="geometry" />
        </mxCell>
        <mxCell id="I768x9JOPk0k12pN69zW-17" style="edgeStyle=orthogonalEdgeStyle;rounded=0;orthogonalLoop=1;jettySize=auto;html=1;exitX=1;exitY=0.5;exitDx=0;exitDy=0;exitPerimeter=0;entryX=0;entryY=0.409;entryDx=0;entryDy=0;entryPerimeter=0;" parent="1" source="I768x9JOPk0k12pN69zW-13" target="I768x9JOPk0k12pN69zW-15" edge="1">
          <mxGeometry relative="1" as="geometry" />
        </mxCell>
        <mxCell id="I768x9JOPk0k12pN69zW-13" value="HAADSelfPayClaimSerivceSend" style="verticalLabelPosition=bottom;verticalAlign=top;html=1;strokeWidth=2;shape=mxgraph.arrows2.arrow;dy=0.6;dx=40;notch=0;" parent="1" vertex="1">
          <mxGeometry x="350" y="300" width="110" height="30" as="geometry" />
        </mxCell>
        <mxCell id="TeGpDydpskkJZmAyh0Qe-3" style="edgeStyle=orthogonalEdgeStyle;rounded=0;orthogonalLoop=1;jettySize=auto;html=1;exitX=1;exitY=0.5;exitDx=0;exitDy=0;exitPerimeter=0;entryX=0.74;entryY=0.048;entryDx=0;entryDy=0;entryPerimeter=0;" parent="1" source="I768x9JOPk0k12pN69zW-14" target="I768x9JOPk0k12pN69zW-1" edge="1">
          <mxGeometry relative="1" as="geometry" />
        </mxCell>
        <mxCell id="I768x9JOPk0k12pN69zW-14" value="HAADSelfPayClaimSQLUpdateSend" style="verticalLabelPosition=bottom;verticalAlign=top;html=1;strokeWidth=2;shape=mxgraph.arrows2.arrow;dy=0.6;dx=40;notch=0;" parent="1" vertex="1">
          <mxGeometry x="350" y="360" width="110" height="30" as="geometry" />
        </mxCell>
        <mxCell id="I768x9JOPk0k12pN69zW-18" style="edgeStyle=orthogonalEdgeStyle;rounded=0;orthogonalLoop=1;jettySize=auto;html=1;exitX=1;exitY=0.5;exitDx=0;exitDy=0;entryX=0;entryY=0.5;entryDx=0;entryDy=0;" parent="1" source="I768x9JOPk0k12pN69zW-15" target="I768x9JOPk0k12pN69zW-16" edge="1">
          <mxGeometry relative="1" as="geometry" />
        </mxCell>
        <mxCell id="TeGpDydpskkJZmAyh0Qe-2" style="edgeStyle=orthogonalEdgeStyle;rounded=0;orthogonalLoop=1;jettySize=auto;html=1;exitX=0;exitY=0.75;exitDx=0;exitDy=0;entryX=0;entryY=0.5;entryDx=0;entryDy=0;entryPerimeter=0;" parent="1" source="I768x9JOPk0k12pN69zW-15" target="I768x9JOPk0k12pN69zW-14" edge="1">
          <mxGeometry relative="1" as="geometry">
            <Array as="points">
              <mxPoint x="550" y="360" />
              <mxPoint x="330" y="360" />
              <mxPoint x="330" y="375" />
            </Array>
          </mxGeometry>
        </mxCell>
        <mxCell id="I768x9JOPk0k12pN69zW-15" value="DMZ Service" style="rounded=1;whiteSpace=wrap;html=1;" parent="1" vertex="1">
          <mxGeometry x="550" y="250" width="80" height="160" as="geometry" />
        </mxCell>
        <mxCell id="I768x9JOPk0k12pN69zW-29" style="edgeStyle=orthogonalEdgeStyle;rounded=0;orthogonalLoop=1;jettySize=auto;html=1;exitX=0;exitY=0.75;exitDx=0;exitDy=0;entryX=1;entryY=0.75;entryDx=0;entryDy=0;" parent="1" source="I768x9JOPk0k12pN69zW-16" target="I768x9JOPk0k12pN69zW-15" edge="1">
          <mxGeometry relative="1" as="geometry">
            <Array as="points">
              <mxPoint x="660" y="370" />
              <mxPoint x="660" y="370" />
            </Array>
          </mxGeometry>
        </mxCell>
        <mxCell id="I768x9JOPk0k12pN69zW-16" value="Shafafiay Service (External)" style="rounded=1;whiteSpace=wrap;html=1;" parent="1" vertex="1">
          <mxGeometry x="690" y="250" width="80" height="160" as="geometry" />
        </mxCell>
        <mxCell id="I768x9JOPk0k12pN69zW-28" style="edgeStyle=orthogonalEdgeStyle;rounded=0;orthogonalLoop=1;jettySize=auto;html=1;entryX=0;entryY=0.5;entryDx=0;entryDy=0;" parent="1" source="I768x9JOPk0k12pN69zW-19" target="I768x9JOPk0k12pN69zW-24" edge="1">
          <mxGeometry relative="1" as="geometry" />
        </mxCell>
        <mxCell id="I768x9JOPk0k12pN69zW-19" value="SQL Job" style="shape=process;whiteSpace=wrap;html=1;backgroundOutline=1;" parent="1" vertex="1">
          <mxGeometry x="390" y="500" width="90" height="60" as="geometry" />
        </mxCell>
        <mxCell id="I768x9JOPk0k12pN69zW-26" style="edgeStyle=orthogonalEdgeStyle;rounded=0;orthogonalLoop=1;jettySize=auto;html=1;exitX=1;exitY=0.5;exitDx=0;exitDy=0;entryX=0;entryY=0.5;entryDx=0;entryDy=0;" parent="1" source="I768x9JOPk0k12pN69zW-24" target="I768x9JOPk0k12pN69zW-25" edge="1">
          <mxGeometry relative="1" as="geometry" />
        </mxCell>
        <mxCell id="I768x9JOPk0k12pN69zW-24" value="Automate Job" style="rounded=1;whiteSpace=wrap;html=1;" parent="1" vertex="1">
          <mxGeometry x="530" y="500" width="80" height="60" as="geometry" />
        </mxCell>
        <mxCell id="I768x9JOPk0k12pN69zW-25" value="Epic FTP" style="rounded=1;whiteSpace=wrap;html=1;" parent="1" vertex="1">
          <mxGeometry x="670" y="500" width="80" height="60" as="geometry" />
        </mxCell>
        <mxCell id="TeGpDydpskkJZmAyh0Qe-6" style="edgeStyle=orthogonalEdgeStyle;rounded=0;orthogonalLoop=1;jettySize=auto;html=1;exitX=1;exitY=0.5;exitDx=0;exitDy=0;exitPerimeter=0;entryX=0;entryY=0.5;entryDx=0;entryDy=0;entryPerimeter=0;" parent="1" source="TeGpDydpskkJZmAyh0Qe-4" target="I768x9JOPk0k12pN69zW-13" edge="1">
          <mxGeometry relative="1" as="geometry" />
        </mxCell>
        <mxCell id="TeGpDydpskkJZmAyh0Qe-7" style="edgeStyle=orthogonalEdgeStyle;rounded=0;orthogonalLoop=1;jettySize=auto;html=1;entryX=0;entryY=0;entryDx=0;entryDy=27.5;entryPerimeter=0;" parent="1" source="TeGpDydpskkJZmAyh0Qe-4" target="I768x9JOPk0k12pN69zW-1" edge="1">
          <mxGeometry relative="1" as="geometry">
            <Array as="points">
              <mxPoint x="140" y="345" />
              <mxPoint x="140" y="420" />
              <mxPoint x="260" y="420" />
              <mxPoint x="260" y="508" />
            </Array>
          </mxGeometry>
        </mxCell>
        <mxCell id="TeGpDydpskkJZmAyh0Qe-4" value="HAADSelfPayClaimPollReceive" style="verticalLabelPosition=bottom;verticalAlign=top;html=1;strokeWidth=2;shape=mxgraph.arrows2.arrow;dy=0.6;dx=40;notch=0;" parent="1" vertex="1">
          <mxGeometry x="170" y="330" width="90" height="30" as="geometry" />
        </mxCell>
        <mxCell id="TeGpDydpskkJZmAyh0Qe-9" style="edgeStyle=orthogonalEdgeStyle;rounded=0;orthogonalLoop=1;jettySize=auto;html=1;exitX=1;exitY=0.5;exitDx=0;exitDy=0;entryX=0;entryY=0.5;entryDx=0;entryDy=0;entryPerimeter=0;" parent="1" source="TeGpDydpskkJZmAyh0Qe-8" target="I768x9JOPk0k12pN69zW-11" edge="1">
          <mxGeometry relative="1" as="geometry" />
        </mxCell>
        <mxCell id="TeGpDydpskkJZmAyh0Qe-8" value="Automate Job download extract from Epic FTP" style="rounded=1;whiteSpace=wrap;html=1;" parent="1" vertex="1">
          <mxGeometry x="20" y="240" width="80" height="170" as="geometry" />
        </mxCell>
      </root>
    </mxGraphModel>
  </diagram>
</mxfile>
